<svg width="128" height="128" viewBox="0 0 128 128" fill="none" xmlns="http://www.w3.org/2000/svg">
<style>.end_368 {
	animation: 2s linear 0s infinite normal forwards running end_368;
}
@keyframes end_368 {
	0% {
		opacity: 1;
	}
	15% {
		opacity: 0.5;
	}
	50% {
		opacity: 1;
	}
	100% {
		opacity: 1;
	}
}
</style><g ><g transform="translate(0 0)" class="end_368">
<ellipse fill="#444444" fill-opacity="0.05" transform="translate(64 64)" rx="64" ry="64"/>
<ellipse fill="#444444" fill-opacity="0.08" transform="translate(64 64)" rx="54.855" ry="54.855"/>
<ellipse fill="#444444" fill-opacity="0.1" transform="translate(64 64)" rx="36.57" ry="36.57"/></g><g transform="translate(16 16)" clip-path="url(#clip_1_662)">
<path d="M96 23.0294V27.9962C96 27.9962 94.4155 30.7871 93.3681 31.2223H74.3714L72.9759 30.7871L72.3637 32.1826H24.9559L24.8299 32.1376L22.6901 31.3964L6.56843 33.4881C6.56843 33.4881 6.05825 33.4641 5.32599 33.3681C3.27327 33.101 -0.517073 32.2697 0.380244 29.8268C0.380244 29.8268 -0.475058 25.1962 0.380244 22.5072C0.380244 22.5072 0.641336 18.7589 3.86448 17.4504C7.09062 16.145 16.589 13.6151 21.8168 12.8348C21.8168 12.8348 26.4355 11.4393 28.4402 9.60864C28.4402 9.60864 32.9628 6.22944 38.5477 3.78058C41.5578 2.46311 44.7779 1.68583 48.0491 1.37973C54.3783 0.785515 68.1352 -0.129809 76.8923 2.02495C84.3319 3.8586 89.2627 8.06009 91.8586 10.8691C93.2841 12.4116 94.0614 14.4253 94.0614 16.5261V18.4108L94.6706 20.5895C94.6736 20.5895 96 21.5469 96 23.0294Z" fill="#5A5F63" transform="translate(0 28.67)"/>
<path d="M19.8688 10.2521C19.8688 10.5492 19.8568 10.8463 19.8298 11.1374L17.6901 10.3961L1.56837 12.4879C1.56837 12.4879 1.05819 12.4639 0.32593 12.3678C0.175877 11.6866 0.0978498 10.9783 0.0978498 10.2521C0.0978498 4.79316 4.52442 0.3666 9.98335 0.3666C15.4423 0.3666 19.8688 4.79316 19.8688 10.2521Z" fill="#2E3235" transform="translate(5.1 49.37)"/>
<path d="M8.9834 16.3309C13.4452 16.3309 17.0623 12.7139 17.0623 8.25204C17.0623 3.79021 13.4452 0.173183 8.9834 0.173183C4.52157 0.173183 0.904543 3.79021 0.904543 8.25204C0.904543 12.7139 4.52157 16.3309 8.9834 16.3309Z" fill="#3E4347" transform="translate(6.9 51.17)"/>
<path d="M0.786781 10.2161L0.975847 9.78393L2.37134 10.2191H20.5548C20.5368 4.77516 16.1192 0.3666 10.6723 0.3666C5.22235 0.3666 0.804788 4.77516 0.786781 10.2161Z" fill="#2E3235" transform="translate(72.79 49.37)"/><g transform="translate(28.47 31.15)">
<path d="M8.20217 16.1837C12.664 16.1837 16.281 12.5667 16.281 8.10487C16.281 3.64304 12.664 0.0260201 8.20217 0.0260201C3.74034 0.0260201 0.123314 3.64304 0.123314 8.10487C0.123314 12.5667 3.74034 16.1837 8.20217 16.1837Z" fill="#3E4347" transform="translate(46.12 20.02)"/>
<path d="M25.458 0.110964C23.7804 0.167984 22.718 0.225006 22.697 0.228007L22.637 0.231009H22.577C22.4089 0.225007 22.2409 0.225005 22.0728 0.225005C14.7472 0.225005 7.44864 4.57655 3.74833 7.16946C2.07674 8.33988 0.76227 9.98746 0 11.8481L23.3453 9.98446L25.458 0.110964Z" fill="#3E4347" transform="translate(0 0.11)"/>
<path d="M19.2667 1.57256C16.9469 0.558198 11.4219 0 3.68521 0C2.77889 0 1.89958 0.00900309 1.07129 0.0210073L0.230989 9.59139L23.3662 7.74574C23.4412 7.31358 23.5042 6.90244 23.5492 6.52731L23.5522 6.4973L23.5582 6.46728C23.8013 5.05078 21.1664 2.73097 19.2667 1.57256Z" fill="#3E4347" transform="translate(28.23 0)"/></g><g transform="translate(1.71 42.04)">
<path d="M0.352449 4.00667C0.352449 4.00667 3.56659 0.264324 7.16786 0.546426C8.04417 0.615451 10.6641 1.78887 6.56765 4.00667C5.28619 4.69992 2.7653 5.10807 0.847624 5.13808C-0.706926 5.15909 0.352449 4.00667 0.352449 4.00667Z" fill="#FFD83B" transform="translate(0 3.53)"/>
<path d="M4.34995 4.37469V2.49002C4.34995 1.67673 4.1999 0.887453 3.97482 0.122182C2.67837 -0.0398753 1.05481 -0.120906 0.526629 0.407281C-0.175614 1.10953 -0.175614 3.67844 0.526629 4.38069C1.11483 4.9689 3.07751 4.80384 4.41297 4.60877L4.34995 4.37469Z" fill="#FFD83B" transform="translate(88 0)"/></g>
<path d="M5.98339 11.6452C8.96181 11.6452 11.3763 9.2307 11.3763 6.25228C11.3763 3.27386 8.96181 0.859379 5.98339 0.859379C3.00497 0.859379 0.590487 3.27386 0.590487 6.25228C0.590487 9.2307 3.00497 11.6452 5.98339 11.6452Z" fill="#CBD6E0" transform="translate(9.59 53.86)"/>
<path d="M4.98335 9.65162C7.41316 9.65162 9.3829 7.68187 9.3829 5.25207C9.3829 2.82226 7.41316 0.852516 4.98335 0.852516C2.55354 0.852516 0.583796 2.82226 0.583796 5.25207C0.583796 7.68187 2.55354 9.65162 4.98335 9.65162Z" fill="#939799" transform="translate(10.58 54.85)"/><g transform="translate(11.82 53.86)">
<path d="M3.16612 6.55885C4.91472 6.55885 6.33224 5.14133 6.33224 3.39273C6.33224 1.64413 4.91472 0.226612 3.16612 0.226612C1.41752 0.226612 0 1.64413 0 3.39273C0 5.14133 1.41752 6.55885 3.16612 6.55885Z" fill="#CBD6E0" transform="translate(0 2.23)"/>
<path d="M5.85206 10.7858C8.83048 10.7858 11.245 8.37132 11.245 5.3929C11.245 2.41448 8.83048 0 5.85206 0C2.87364 0 0.459145 2.41448 0.459145 5.3929C0.459145 8.37132 2.87364 10.7858 5.85206 10.7858Z" fill="#CBD6E0" transform="translate(65.46 0)"/></g>
<path d="M4.6693 9.65162C7.0991 9.65162 9.06885 7.68187 9.06885 5.25207C9.06885 2.82226 7.0991 0.852516 4.6693 0.852516C2.23949 0.852516 0.269745 2.82226 0.269745 5.25207C0.269745 7.68187 2.23949 9.65162 4.6693 9.65162Z" fill="#939799" transform="translate(78.27 54.85)"/>
<path d="M3.66929 6.41823C5.41788 6.41823 6.8354 5.00071 6.8354 3.25211C6.8354 1.50351 5.41788 0.0859909 3.66929 0.0859909C1.92069 0.0859909 0.503174 1.50351 0.503174 3.25211C0.503174 5.00071 1.92069 6.41823 3.66929 6.41823Z" fill="#CBD6E0" transform="translate(79.5 56.09)"/><g transform="translate(33.93 31.2)">
<path d="M0 11.3561L4.91274 10.963L11.0919 0.915428C8.94316 1.46762 6.90544 2.28091 5.02978 3.17823L0 11.3561Z" fill="#5A5F63" transform="translate(0 0.92)"/>
<path d="M0.644325 10.8249L3.20722 10.6208L9.59046 0.24012C8.71115 0.288137 7.83784 0.384171 6.97054 0.537225L0.644325 10.8249Z" fill="#5A5F63" transform="translate(6.64 0.24)"/>
<path d="M0.107513 9.43234L5.02025 9.0392L10.4432 0.219077C9.07468 0.117041 7.55615 0.0420149 5.90556 0L0.107513 9.43234Z" fill="#5A5F63" transform="translate(24.1 0)"/>
<path d="M0.748894 8.90102L3.31179 8.69695L8.26653 0.639108C7.57629 0.53107 6.83503 0.432036 6.00674 0.351007L0.748894 8.90102Z" fill="#5A5F63" transform="translate(30.74 0.35)"/></g></g></g>
<defs><clipPath id="clip_1_662"><rect width="96" height="96"/></clipPath>
</defs>
</svg>