<svg width="144" height="144" viewBox="0 0 144 144" fill="none" xmlns="http://www.w3.org/2000/svg">
<g filter="url(#filter0_d_101_2)">
<rect x="4" y="3" width="136" height="136" rx="28" fill="#F7F7F7"/>
<path d="M39.72 91.28C37.1067 91.28 34.6613 90.7387 32.384 89.656C30.1067 88.5733 28.1093 87.08 26.392 85.176C24.712 83.272 23.3867 81.1067 22.416 78.68C21.4827 76.2533 21.016 73.6773 21.016 70.952C21.016 68.2267 21.4827 65.6693 22.416 63.28C23.3867 60.8907 24.712 58.7627 26.392 56.896C28.1093 55.0293 30.1067 53.5733 32.384 52.528C34.6987 51.4827 37.2187 50.96 39.944 50.96C43.7147 50.96 46.888 51.7627 49.464 53.368C52.0773 54.936 54.0373 57.0267 55.344 59.64L50.528 63.112C49.4827 60.9467 47.9893 59.3227 46.048 58.24C44.144 57.1573 42.0533 56.616 39.776 56.616C37.9093 56.616 36.2107 57.008 34.68 57.792C33.1493 58.576 31.824 59.6587 30.704 61.04C29.6213 62.384 28.8 63.9333 28.24 65.688C27.68 67.4053 27.4 69.216 27.4 71.12C27.4 73.136 27.7173 75.0213 28.352 76.776C28.9867 78.5307 29.8827 80.08 31.04 81.424C32.1973 82.7307 33.56 83.7573 35.128 84.504C36.696 85.2507 38.3947 85.624 40.224 85.624C42.3893 85.624 44.4427 85.0827 46.384 84C48.3627 82.88 50.2107 81.2187 51.928 79.016V85.4C48.456 89.32 44.3867 91.28 39.72 91.28ZM51.312 75.544H42.968V70.896H56.576V91H51.312V75.544Z" fill="#0FCC7C"/>
<path d="M77.6219 98.28V47.6H82.8859V98.28H77.6219Z" fill="#CCD5D1"/>
<path d="M103.374 51.24H109.31L124.766 91H118.158L113.958 80.192H98.6141L94.4701 91H87.8061L103.374 51.24ZM112.726 75.544L106.342 58.128L99.7341 75.544H112.726Z" fill="#4A5562"/>
</g>
<defs>
<filter id="filter0_d_101_2" x="0" y="0" width="144" height="144" filterUnits="userSpaceOnUse" color-interpolation-filters="sRGB">
<feFlood flood-opacity="0" result="BackgroundImageFix"/>
<feColorMatrix in="SourceAlpha" type="matrix" values="0 0 0 0 0 0 0 0 0 0 0 0 0 0 0 0 0 0 127 0" result="hardAlpha"/>
<feOffset dy="1"/>
<feGaussianBlur stdDeviation="2"/>
<feComposite in2="hardAlpha" operator="out"/>
<feColorMatrix type="matrix" values="0 0 0 0 0 0 0 0 0 0 0 0 0 0 0 0 0 0 0.25 0"/>
<feBlend mode="normal" in2="BackgroundImageFix" result="effect1_dropShadow_101_2"/>
<feBlend mode="normal" in="SourceGraphic" in2="effect1_dropShadow_101_2" result="shape"/>
</filter>
</defs>
</svg>
